<?xml version="1.0" encoding="UTF-8"?>
<svg id="Calque_1" data-name="Calque 1" xmlns="http://www.w3.org/2000/svg" viewBox="0 0 153.19 239.14">
  <defs>
    <style>
      .cls-1, .cls-2 {
        fill: #fff;
      }

      .cls-2, .cls-3 {
        stroke: #fff;
        stroke-miterlimit: 10;
        stroke-width: 3px;
      }

      .cls-3 {
        fill: #e30613;
      }
    </style>
  </defs>
  <circle class="cls-1" cx="84.19" cy="109.55" r="12.35"/>
  <path class="cls-3" d="M101.53,114.6c0,.92,5.05,1.26,6.06,1.34,6.87.56,11.72-.47,15-7.18,1.74-3.56,1.7-12.95-.69-16.04-.86-1.11-2.2-1.81-3.07-2.85-3.67-4.39-3.96-8.21-1.53-13.24.58-1.21,4.92-8.55,5.55-9.08,3.23-2.65,6.32.59,8.85,2.64,5.15,4.17,10.15,8.49,7.37,15.75-.79,2.07-2.49,3.64-3.35,5.5-2.65,5.74,2.23,14.34-2.98,23.65-8.12,14.49-19.26,13.12-33.04,11.64-.73-.08-1.36-.55-2.02.15l24.69,9.67c9.61,5.51-3.74,15.24-6.92,20.67-.41.34.18.92.49,1.13,3.05,2.12,12.55-5.76,16.21-6.15,1.46.25,4.36,7.62,5.25,9.28-.02.66-3.41,2.72-4.25,3.21-2.61,1.52-10.58,5.73-13.17,6.33-3.93.91-8.84-2.75-12.9-2.6-1.4,2.08-8.35,9.05-7.2,11.14l18.57,19.53c2.51,4.07-7.66,18.75-7.66,18.75-8.42,1.06-12.9,1.62-13.54,1.71l7.64-17.47c-4.89-6.36-12.27-11.85-17.08-18.1-1.46-1.9-2.82-3.26-2.41-5.8.57-3.53,7.27-10.01,9.54-13.15-4.25-3.39-11.56-1.63-13.76-7.56-.9-2.43-3.31-17.26-4.46-17.68l-11.62,12.2c-.07.76.3,1.12.77,1.62,3.46,3.62,12.8,6.38,13.12,12.11.06,1.15-.65,2.36-1.08,3.4-1.23,2.96-5.98,13.02-7.71,15.13-.86,1.04-1.52,1.71-2.78,2.31l-20.89,2.15,7.71,23.27c-1.97-.55-10.17,4.04-10.41,2.47-.21-1.44-9.34-33.19-8.34-34.02,1.35-1.11,1.07-2.39,9.96-3.15,7.9-.67,15.47-1.55,16.85-3.24.2-.25,2.37-4.68,2.42-4.95.24-1.48-.3-1.88-1.29-2.83-2.99-2.87-10.83-6.33-13.1-9.05-5.14-6.17,7.57-13.95,10.95-18.44.42-.55,1.19-.97.81-1.83-3.17,2.57-17.47,6.82-19.03,9.49-1.76,3.01,6.11,15.18.88,19.7-2.12,1.84-8.82,5.67-11.54,7.14-.79.43-1.66.76-2.53.96-1.81-.22-4.13-6.84-5.65-8.34-.93-2.95,7.57-4.71,8.9-7.31-.04-6.34-7.21-17.04-.25-21.29l21.64-9.8-11.31,1.48c-9.54,0-17.43-6.46-19.92-15.7-.57-2.12-.32-5.68-1.04-7.44-1.92-4.66-5.86-6.04-3.59-12.27.66-1.81,5.52-8.39,6.97-9.52,1.07-.83,3.24-1.28,4.39-.55,1.35.86,7.07,7.89,7.85,9.48.8,1.63,1.07,4.14.61,5.9-1.15,4.44-5.34,5.31-3.8,11.56,2.23,9.02,11.19,6.49,17.83,5.11-7.65-15.11-9.33-31.46-8.15-48.06.18-2.46,1.41-4.95.59-7.49-1.43-4.43-12.81-8.38-8.67-14.33,1.03-1.48,3.58-3.46,5.03-4.81,7.72-7.16,17.51-16.58,25.69-22.84,3.6-2.75,6.91-4.31,11.44-3.09,11.35,3.06,24.68,12.38,36.3,15.97,2.69,1.31,3.84,4.36,2.27,6.98-2.7,4.51-13.33,13.83-14.35,17.81-.47,1.85,2.62,12.01,3.13,15.07,2.37,14.16,1.52,30.63-4.27,43.83ZM96.81,111.5c2.6-16.58-23.42-20.73-25.33-3.31-1.83,16.67,22.84,19.2,25.33,3.31ZM88.76,136.52l3.31,14.35c.41.46,9.13,3.41,9.85,3.45.67.04.94-.05,1.48-.45.47-.35,5.34-6.88,5.68-7.61.31-.64.79-1.33.23-2.01l-20.56-7.73Z"/>
  <path class="cls-2" d="M29.23,59.8c-1.02.95-1.66.65-2.76.25-2.7-.99-16.76-8.35-18.68-10.01-3.7-3.17,2.97-10.7,6.39-8.54l15.05,18.3Z"/>
  <path class="cls-2" d="M114.83,58.36l-1.33-2.06c2.74-2.15,8.79-12.72,11.7-13.1,2.12-.27,6.56,5.16,3.99,7.33l-14.35,7.83Z"/>
  <path class="cls-2" d="M10.73,68.56c.76-.7,1.29-.51,2.14-.59,1.8-.16,9.66.34,11.43.72.55.12,1.41.06,1.67.69-.03.92-.22,1.04-.97,1.45-1.1.6-12.12,4.33-12.78,4.21-2.01-.73-3.06-5.04-1.49-6.48Z"/>
  <path d="M76.56,115.42c-3.23-4.23-2.97-9.78.27-13.2,4.15-4.37,12.32-3.8,15.61.96,2.25,3.26,2.18,7.34.16,10.98"/>
  <path class="cls-2" d="M120.5,182.02l.74-2.34c3.4.74,15.4-1.35,17.55.66,1.56,1.46.21,8.34-3.1,7.74l-15.18-6.06Z"/>
  <path class="cls-2" d="M130.02,200.56c-1.03-.11-1.24-.63-1.86-1.22-1.31-1.25-6.11-7.49-7-9.07-.28-.49-.89-1.1-.58-1.71.71-.58.93-.52,1.73-.23,1.18.43,11.25,6.26,11.59,6.83.78,1.99-1.78,5.62-3.89,5.4Z"/>
</svg>